<svg width="100" height="100" viewBox="0 0 24 25" fill="none" xmlns="http://www.w3.org/2000/svg">
<path fill-rule="evenodd" clip-rule="evenodd" d="M11 2.00418H9.00001C8.1875 2.00413 7.39424 2.25152 6.7258 2.71342C6.05736 3.17532 5.54543 3.82983 5.25814 4.58985C4.97086 5.34987 4.92183 6.17936 5.11759 6.96793C5.31336 7.7565 5.74463 8.46676 6.35401 9.00418C5.92792 9.37916 5.58674 9.84072 5.35325 10.3581C5.11976 10.8754 4.99933 11.4366 5.00001 12.0042C4.99933 12.5718 5.11976 13.133 5.35325 13.6503C5.58674 14.1676 5.92792 14.6292 6.35401 15.0042C5.85275 15.4463 5.47028 16.007 5.24154 16.635C5.0128 17.2631 4.94508 17.9384 5.04456 18.5993C5.14405 19.2603 5.40757 19.8858 5.81105 20.4186C6.21453 20.9515 6.74511 21.3747 7.35431 21.6497C7.9635 21.9247 8.6319 22.0427 9.29842 21.9928C9.96494 21.943 10.6083 21.7269 11.1698 21.3643C11.7313 21.0017 12.193 20.5042 12.5127 19.9173C12.8324 19.3303 13 18.6726 13 18.0042V15.4692C13.8593 15.9665 14.8727 16.1265 15.8434 15.9181C16.8141 15.7097 17.6726 15.1477 18.2519 14.3415C18.8313 13.5353 19.0902 12.5425 18.9782 11.556C18.8662 10.5696 18.3914 9.66 17.646 9.00418C18.2554 8.46676 18.6867 7.7565 18.8824 6.96793C19.0782 6.17936 19.0292 5.34987 18.7419 4.58985C18.4546 3.82983 17.9427 3.17532 17.2742 2.71342C16.6058 2.25152 15.8125 2.00413 15 2.00418H11ZM13 4.00418V8.00418H15C15.5304 8.00418 16.0391 7.79347 16.4142 7.41839C16.7893 7.04332 17 6.53461 17 6.00418C17 5.47375 16.7893 4.96504 16.4142 4.58997C16.0391 4.21489 15.5304 4.00418 15 4.00418H13ZM11 10.0042H9.00001C8.46957 10.0042 7.96086 10.2149 7.58579 10.59C7.21072 10.965 7.00001 11.4737 7.00001 12.0042C7.00001 12.5346 7.21072 13.0433 7.58579 13.4184C7.96086 13.7935 8.46957 14.0042 9.00001 14.0042H11V10.0042ZM9.00001 8.00418H11V4.00418H9.00001C8.46957 4.00418 7.96086 4.21489 7.58579 4.58997C7.21072 4.96504 7.00001 5.47375 7.00001 6.00418C7.00001 6.53461 7.21072 7.04332 7.58579 7.41839C7.96086 7.79347 8.46957 8.00418 9.00001 8.00418ZM13 12.0042C13 12.5346 13.2107 13.0433 13.5858 13.4184C13.9609 13.7935 14.4696 14.0042 15 14.0042C15.5304 14.0042 16.0391 13.7935 16.4142 13.4184C16.7893 13.0433 17 12.5346 17 12.0042C17 11.4737 16.7893 10.965 16.4142 10.59C16.0391 10.2149 15.5304 10.0042 15 10.0042C14.4696 10.0042 13.9609 10.2149 13.5858 10.59C13.2107 10.965 13 11.4737 13 12.0042ZM9.00001 16.0042H11V18.0042C11 18.3997 10.8827 18.7864 10.6629 19.1153C10.4432 19.4442 10.1308 19.7006 9.76537 19.8519C9.39992 20.0033 8.99779 20.0429 8.60982 19.9658C8.22186 19.8886 7.8655 19.6981 7.58579 19.4184C7.30609 19.1387 7.11561 18.7823 7.03843 18.3944C6.96126 18.0064 7.00087 17.6043 7.15225 17.2388C7.30362 16.8734 7.55997 16.561 7.88887 16.3412C8.21776 16.1215 8.60444 16.0042 9.00001 16.0042Z" fill="black"/>
</svg>
